<svg data-v-0dd9719b="" version="1.0" xmlns="http://www.w3.org/2000/svg" xmlns:xlink="http://www.w3.org/1999/xlink" width="100%" height="100%" viewBox="0 0 340.000000 250.000000" preserveAspectRatio="xMidYMid meet" color-interpolation-filters="sRGB" style="margin: auto;"> <rect data-v-0dd9719b="" x="0" y="0" width="100%" height="100%" fill="#fff" fill-opacity="1" class="background"></rect> <rect data-v-0dd9719b="" x="0" y="0" width="100%" height="100%" fill="url(#watermark)" fill-opacity="1" class="watermarklayer"></rect> <g data-v-0dd9719b="" fill="#45b657" class="icon-text-wrapper icon-svg-group iconsvg" transform="translate(46.5,100.62541198730469)"><g class="iconsvg-imagesvg" transform="translate(0,0)"><g><rect fill="#45b657" fill-opacity="0" stroke-width="2" x="0" y="0" width="60" height="48.749177357632085" class="image-rect"></rect> <svg x="0" y="0" width="60" height="48.749177357632085" filtersec="colorsb7178248836" class="image-svg-svg primary" style="overflow: visible;"><svg xmlns="http://www.w3.org/2000/svg" viewBox="-0.00023214705288410187 0 200.00022888183594 162.49798583984375"><path fill="#45B657" d="M.083 62.601L.228 0H200l-.225 64.919-59.355-34.497-42.444 25.293L57.67 30.779.083 62.601z"></path><path fill="#344C99" d="M139.879 62.999l58.826 32.48.133 66.594s-80.518.124-121.431-.15c32.265-20.707 98.13-59.815 98.13-59.815l-28.332-15.466-48.636 30.231s-14.892-8.478-22.958-13.445c21.243-13.365 64.268-40.429 64.268-40.429zM.109 94.779C18.421 83.76 55.043 62.988 55.043 62.988L72.35 71.63l-50.458 30.491 50.366 30.188s-32.447 22.253-44.804 29.998l-.307.191-27.117-.466s-.106-44.844.079-67.253z"></path></svg></svg> <!----></g></g> <g transform="translate(67,6.094587326049805)"><g data-gra="path-name" fill-rule="" class="tp-name iconsvg-namesvg"><g transform="scale(1)"><g><path d="M3.88-36.56L0 0 24.65 0 26.4-5.13 5.73-5.13 7.02-16.73 24.55-16.73 25.1-21.91 7.52-21.91 8.52-31.43 28.64-31.43 29.19-36.56 3.88-36.56ZM32.97-36.56L29.19 0 37.35 0 39.1-5.13 34.91-5.13 38.2-36.56 32.97-36.56ZM42.88-36.56L39.1 0 47.27 0 49.01-5.13 44.83-5.13 48.11-36.56 42.88-36.56ZM49.01 0L51.7-25.4 75.21-25.4 73.27-7.42 72.97 0 68.43 0 68.33-2.54 63.05 0 49.01 0ZM56.38-20.22L54.74-5.13 63.55-5.13 68.09-7.47 69.38-20.22 56.38-20.22ZM79.09-36.56L75.21 0 98.72 0 101.41-25.45 83.13-25.45 84.27-36.56 79.09-36.56ZM94.03-5.13L81.03-5.13 82.58-20.27 95.68-20.27 94.03-5.13ZM104.1-25.4L101.41 0 123.72 0 125.46-5.13 107.23-5.13 107.73-10.31 126.01-10.31 127.6-25.4 104.1-25.4ZM121.73-15.04L108.23-15.04 108.78-20.22 122.27-20.22 121.73-15.04ZM131.49-36.56L127.6 0 151.11 0 153.8-25.45 135.52-25.45 136.67-36.56 131.49-36.56ZM146.43-5.13L133.43-5.13 134.98-20.27 148.07-20.27 146.43-5.13ZM156.49-25.4L153.8 0 176.12 0 177.86-5.13 159.63-5.13 160.13-10.31 178.41-10.31 180-25.4 156.49-25.4ZM174.12-15.04L160.63-15.04 161.17-20.22 174.67-20.22 174.12-15.04Z" transform="translate(0, 36.560001373291016)"></path></g> <!----> <!----> <!----> <!----> <!----> <!----> <!----></g></g> <!----></g></g><defs v-gra="od"></defs></svg>